<?xml version="1.0" encoding="UTF-8"?>
<!DOCTYPE svg PUBLIC "-//W3C//DTD SVG 1.1//EN" "http://www.w3.org/Graphics/SVG/1.1/DTD/svg11.dtd">
<!-- Creator: CorelDRAW 2019 (64-Bit) -->
<svg xmlns="http://www.w3.org/2000/svg" xml:space="preserve" width="10.1598mm" height="10.1598mm" version="1.1" style="shape-rendering:geometricPrecision; text-rendering:geometricPrecision; image-rendering:optimizeQuality; fill-rule:evenodd; clip-rule:evenodd"
viewBox="0 0 1015.98 1015.98"
 xmlns:xlink="http://www.w3.org/1999/xlink"
 xmlns:xodm="http://www.corel.com/coreldraw/odm/2003">
 <defs>
  <style type="text/css">
   <![CDATA[
    .fil0 {fill:#2B2A29}
   ]]>
  </style>
 </defs>
 <g id="Слой_x0020_1">
  <metadata id="CorelCorpID_0Corel-Layer"/>
  <path class="fil0" d="M-0.01 -0.01l880.53 0c74.51,0 135.47,60.96 135.47,135.47l0 880.53 -880.53 0c-74.51,0 -135.47,-60.96 -135.47,-135.47l0 -880.53zm67.66 508l440.34 -188.83 440.34 186.51 -440.34 191.15 -440.34 -188.83zm78.96 0l362.15 -155.55 361.41 152.45 -360.63 154.01 -362.93 -150.91zm300.38 -59.06l2.83 39.32c-2.76,-1.89 -7.9,-3.69 -15.42,-5.38 -7.51,-1.69 -15.17,-2.51 -22.97,-2.51 -11.45,0 -21.21,2.31 -29.31,6.96 -8.01,4.69 -12.59,12.59 -13.73,23.63 0,0.52 -0.07,1.45 -0.21,2.72 -0.14,1.21 -0.21,2.07 -0.21,2.63 0,5.24 1.21,10 3.63,14.28 2.44,4.27 5.86,7.65 10.31,10.14 4.48,2.48 9.62,3.72 15.42,3.72 2.55,0 5.96,-0.55 10.27,-1.69l0 -10.14 -12.41 0 0 -33.56 59.18 0 0 72.33c-20.48,3.59 -37.69,5.38 -51.63,5.38 -13.93,0 -26.21,-1.48 -36.83,-4.48 -10.63,-3.01 -19.49,-7.39 -26.63,-13.11 -7.14,-5.73 -12.49,-12.63 -16.08,-20.77 -3.55,-8.1 -5.34,-17.38 -5.34,-27.83 0,-0.66 0.07,-1.83 0.21,-3.48 0.13,-1.66 0.2,-2.83 0.2,-3.59 1.42,-10.69 4.59,-19.97 9.59,-27.73 5,-7.8 11.28,-14.07 18.83,-18.87 7.59,-4.79 16.11,-8.34 25.53,-10.62 9.41,-2.14 19.45,-3.21 30.11,-3.21 13.41,0 28.28,1.97 44.66,5.86zm18.63 -2.55l51.32 0 0 127.93 -51.32 0 0 -127.93zm60.91 0l67.84 0 12.04 73.68 16.52 -73.68 65.33 0 0 127.93 -43.01 0 0 -79.92 -17.76 79.92 -42.19 0 -17.76 -81.12 0 81.12 -41.01 0 0 -127.93z"/>
 </g>
</svg>
